<mxfile host="app.diagrams.net" modified="2024-01-24T20:08:29.283Z" agent="Mozilla/5.0 (Macintosh; Intel Mac OS X 10_15_7) AppleWebKit/537.36 (KHTML, like Gecko) Chrome/120.0.0.0 Safari/537.36" etag="7SsxKlXouyjvNZIv9Jth" version="23.0.0" type="google" pages="2">
  <diagram name="Alpha" id="w_MV7RsU2FrqvlAm6N-9">
    <mxGraphModel grid="1" page="1" gridSize="10" guides="1" tooltips="1" connect="1" arrows="1" fold="1" pageScale="1" pageWidth="850" pageHeight="1100" math="0" shadow="0">
      <root>
        <mxCell id="0" />
        <mxCell id="1" parent="0" />
        <mxCell id="B8S3TMN3LlwnSvPmtEPX-1" value="Arduino" style="rounded=0;whiteSpace=wrap;html=1;strokeColor=#343764;" vertex="1" parent="1">
          <mxGeometry x="300" y="210" width="120" height="60" as="geometry" />
        </mxCell>
        <mxCell id="B8S3TMN3LlwnSvPmtEPX-2" value="Motion Detector" style="rounded=0;whiteSpace=wrap;html=1;strokeColor=#343764;" vertex="1" parent="1">
          <mxGeometry x="500" y="210" width="100" height="60" as="geometry" />
        </mxCell>
        <mxCell id="B8S3TMN3LlwnSvPmtEPX-4" value="" style="shape=flexArrow;endArrow=classic;html=1;rounded=0;entryX=1;entryY=0.5;entryDx=0;entryDy=0;exitX=0;exitY=0.5;exitDx=0;exitDy=0;strokeColor=#BBE617;fillColor=#BBE617;" edge="1" parent="1" source="B8S3TMN3LlwnSvPmtEPX-2" target="B8S3TMN3LlwnSvPmtEPX-1">
          <mxGeometry width="50" height="50" relative="1" as="geometry">
            <mxPoint x="400" y="360" as="sourcePoint" />
            <mxPoint x="450" y="310" as="targetPoint" />
          </mxGeometry>
        </mxCell>
        <mxCell id="vE7kcpy-GZmTJOfKc9xp-1" value="Speaker" style="rounded=0;whiteSpace=wrap;html=1;strokeColor=#343764;" vertex="1" parent="1">
          <mxGeometry x="110" y="210" width="120" height="60" as="geometry" />
        </mxCell>
        <mxCell id="vE7kcpy-GZmTJOfKc9xp-2" value="" style="shape=flexArrow;endArrow=classic;html=1;rounded=0;entryX=1;entryY=0.5;entryDx=0;entryDy=0;exitX=0;exitY=0.5;exitDx=0;exitDy=0;strokeColor=#bbe617;fillColor=#BBE617;" edge="1" parent="1" source="B8S3TMN3LlwnSvPmtEPX-1" target="vE7kcpy-GZmTJOfKc9xp-1">
          <mxGeometry width="50" height="50" relative="1" as="geometry">
            <mxPoint x="400" y="360" as="sourcePoint" />
            <mxPoint x="450" y="310" as="targetPoint" />
          </mxGeometry>
        </mxCell>
        <mxCell id="vE7kcpy-GZmTJOfKc9xp-3" value="" style="rounded=0;whiteSpace=wrap;html=1;strokeColor=#343764;" vertex="1" parent="1">
          <mxGeometry x="280" y="330" width="160" height="210" as="geometry" />
        </mxCell>
        <mxCell id="vE7kcpy-GZmTJOfKc9xp-4" value="" style="shape=flexArrow;endArrow=classic;html=1;rounded=0;entryX=0.341;entryY=0.995;entryDx=0;entryDy=0;exitX=0.385;exitY=0;exitDx=0;exitDy=0;exitPerimeter=0;entryPerimeter=0;strokeColor=#BBE617;fillColor=#BBE617;" edge="1" parent="1" source="vE7kcpy-GZmTJOfKc9xp-3" target="B8S3TMN3LlwnSvPmtEPX-1">
          <mxGeometry width="50" height="50" relative="1" as="geometry">
            <mxPoint x="400" y="360" as="sourcePoint" />
            <mxPoint x="450" y="310" as="targetPoint" />
          </mxGeometry>
        </mxCell>
        <mxCell id="vE7kcpy-GZmTJOfKc9xp-5" value="" style="shape=flexArrow;endArrow=classic;html=1;rounded=0;exitX=0.75;exitY=1;exitDx=0;exitDy=0;entryX=0.696;entryY=-0.008;entryDx=0;entryDy=0;entryPerimeter=0;strokeColor=#BBE617;fillColor=#BBE617;" edge="1" parent="1" source="B8S3TMN3LlwnSvPmtEPX-1" target="vE7kcpy-GZmTJOfKc9xp-3">
          <mxGeometry width="50" height="50" relative="1" as="geometry">
            <mxPoint x="400" y="360" as="sourcePoint" />
            <mxPoint x="450" y="310" as="targetPoint" />
          </mxGeometry>
        </mxCell>
        <mxCell id="vE7kcpy-GZmTJOfKc9xp-7" value="" style="rounded=0;whiteSpace=wrap;html=1;strokeColor=#343764;" vertex="1" parent="1">
          <mxGeometry x="290" y="340" width="140" height="80" as="geometry" />
        </mxCell>
        <mxCell id="vE7kcpy-GZmTJOfKc9xp-8" value="" style="rounded=0;whiteSpace=wrap;html=1;strokeColor=#343764;" vertex="1" parent="1">
          <mxGeometry x="325" y="440" width="99.7" height="20" as="geometry" />
        </mxCell>
        <mxCell id="vE7kcpy-GZmTJOfKc9xp-9" value="" style="rounded=0;whiteSpace=wrap;html=1;strokeColor=#343764;" vertex="1" parent="1">
          <mxGeometry x="355" y="430" width="10" height="40" as="geometry" />
        </mxCell>
        <mxCell id="vE7kcpy-GZmTJOfKc9xp-10" value="System Status:" style="text;html=1;strokeColor=#343764;fillColor=none;align=center;verticalAlign=middle;whiteSpace=wrap;rounded=0;" vertex="1" parent="1">
          <mxGeometry x="290" y="340" width="100" height="20" as="geometry" />
        </mxCell>
        <mxCell id="vE7kcpy-GZmTJOfKc9xp-11" value="" style="html=1;verticalLabelPosition=bottom;align=center;labelBackgroundColor=#ffffff;verticalAlign=top;strokeWidth=2;strokeColor=#343764;shadow=0;dashed=0;shape=mxgraph.ios7.icons.volume_2;pointerEvents=1" vertex="1" parent="1">
          <mxGeometry x="290" y="435.9" width="30.299999999999997" height="28.2" as="geometry" />
        </mxCell>
        <mxCell id="vE7kcpy-GZmTJOfKc9xp-14" value="Protocontrol" style="text;html=1;strokeColor=none;fillColor=none;align=center;verticalAlign=middle;whiteSpace=wrap;rounded=0;" vertex="1" parent="1">
          <mxGeometry x="325" y="510" width="60" height="30" as="geometry" />
        </mxCell>
        <mxCell id="vE7kcpy-GZmTJOfKc9xp-15" value="i2c" style="text;html=1;strokeColor=none;fillColor=none;align=center;verticalAlign=middle;whiteSpace=wrap;rounded=0;" vertex="1" parent="1">
          <mxGeometry x="240" y="240" width="60" height="30" as="geometry" />
        </mxCell>
        <mxCell id="vE7kcpy-GZmTJOfKc9xp-16" value="i2c" style="text;html=1;strokeColor=none;fillColor=none;align=center;verticalAlign=middle;whiteSpace=wrap;rounded=0;" vertex="1" parent="1">
          <mxGeometry x="440" y="240" width="60" height="30" as="geometry" />
        </mxCell>
      </root>
    </mxGraphModel>
  </diagram>
  <diagram id="jc1fnqDK3dfaRW-teFPN" name="Beta">
    <mxGraphModel grid="1" page="1" gridSize="10" guides="1" tooltips="1" connect="1" arrows="1" fold="1" pageScale="1" pageWidth="850" pageHeight="1100" math="0" shadow="0">
      <root>
        <mxCell id="0" />
        <mxCell id="1" parent="0" />
        <mxCell id="nUlfz_mp-8qioIIaXf8o-21" value="" style="ellipse;whiteSpace=wrap;html=1;aspect=fixed;" vertex="1" parent="1">
          <mxGeometry x="480" y="430" width="100" height="100" as="geometry" />
        </mxCell>
        <mxCell id="nUlfz_mp-8qioIIaXf8o-1" value="Arduino" style="rounded=0;whiteSpace=wrap;html=1;strokeColor=#343764;" vertex="1" parent="1">
          <mxGeometry x="300" y="210" width="120" height="60" as="geometry" />
        </mxCell>
        <mxCell id="nUlfz_mp-8qioIIaXf8o-2" value="Motion Detector" style="rounded=0;whiteSpace=wrap;html=1;strokeColor=#343764;" vertex="1" parent="1">
          <mxGeometry x="500" y="210" width="100" height="60" as="geometry" />
        </mxCell>
        <mxCell id="nUlfz_mp-8qioIIaXf8o-3" value="" style="shape=flexArrow;endArrow=classic;html=1;rounded=0;entryX=1;entryY=0.5;entryDx=0;entryDy=0;exitX=0;exitY=0.5;exitDx=0;exitDy=0;strokeColor=#BBE617;fillColor=#BBE617;" edge="1" parent="1" source="nUlfz_mp-8qioIIaXf8o-2" target="nUlfz_mp-8qioIIaXf8o-1">
          <mxGeometry width="50" height="50" relative="1" as="geometry">
            <mxPoint x="400" y="360" as="sourcePoint" />
            <mxPoint x="450" y="310" as="targetPoint" />
          </mxGeometry>
        </mxCell>
        <mxCell id="nUlfz_mp-8qioIIaXf8o-4" value="Speaker" style="rounded=0;whiteSpace=wrap;html=1;strokeColor=#343764;" vertex="1" parent="1">
          <mxGeometry x="110" y="210" width="120" height="60" as="geometry" />
        </mxCell>
        <mxCell id="nUlfz_mp-8qioIIaXf8o-5" value="" style="shape=flexArrow;endArrow=classic;html=1;rounded=0;entryX=1;entryY=0.5;entryDx=0;entryDy=0;exitX=0;exitY=0.5;exitDx=0;exitDy=0;strokeColor=#bbe617;fillColor=#BBE617;" edge="1" parent="1" source="nUlfz_mp-8qioIIaXf8o-1" target="nUlfz_mp-8qioIIaXf8o-4">
          <mxGeometry width="50" height="50" relative="1" as="geometry">
            <mxPoint x="400" y="360" as="sourcePoint" />
            <mxPoint x="450" y="310" as="targetPoint" />
          </mxGeometry>
        </mxCell>
        <mxCell id="nUlfz_mp-8qioIIaXf8o-6" value="" style="rounded=0;whiteSpace=wrap;html=1;strokeColor=#343764;" vertex="1" parent="1">
          <mxGeometry x="280" y="330" width="160" height="210" as="geometry" />
        </mxCell>
        <mxCell id="nUlfz_mp-8qioIIaXf8o-7" value="" style="shape=flexArrow;endArrow=classic;html=1;rounded=0;entryX=0.341;entryY=0.995;entryDx=0;entryDy=0;exitX=0.385;exitY=0;exitDx=0;exitDy=0;exitPerimeter=0;entryPerimeter=0;strokeColor=#BBE617;fillColor=#BBE617;" edge="1" parent="1" source="nUlfz_mp-8qioIIaXf8o-6" target="nUlfz_mp-8qioIIaXf8o-1">
          <mxGeometry width="50" height="50" relative="1" as="geometry">
            <mxPoint x="400" y="360" as="sourcePoint" />
            <mxPoint x="450" y="310" as="targetPoint" />
          </mxGeometry>
        </mxCell>
        <mxCell id="nUlfz_mp-8qioIIaXf8o-8" value="" style="shape=flexArrow;endArrow=classic;html=1;rounded=0;exitX=0.75;exitY=1;exitDx=0;exitDy=0;entryX=0.696;entryY=-0.008;entryDx=0;entryDy=0;entryPerimeter=0;strokeColor=#BBE617;fillColor=#BBE617;" edge="1" parent="1" source="nUlfz_mp-8qioIIaXf8o-1" target="nUlfz_mp-8qioIIaXf8o-6">
          <mxGeometry width="50" height="50" relative="1" as="geometry">
            <mxPoint x="400" y="360" as="sourcePoint" />
            <mxPoint x="450" y="310" as="targetPoint" />
          </mxGeometry>
        </mxCell>
        <mxCell id="nUlfz_mp-8qioIIaXf8o-9" value="" style="rounded=0;whiteSpace=wrap;html=1;strokeColor=#343764;" vertex="1" parent="1">
          <mxGeometry x="290" y="340" width="140" height="80" as="geometry" />
        </mxCell>
        <mxCell id="nUlfz_mp-8qioIIaXf8o-10" value="" style="rounded=0;whiteSpace=wrap;html=1;strokeColor=#343764;" vertex="1" parent="1">
          <mxGeometry x="325" y="440" width="99.7" height="20" as="geometry" />
        </mxCell>
        <mxCell id="nUlfz_mp-8qioIIaXf8o-11" value="" style="rounded=0;whiteSpace=wrap;html=1;strokeColor=#343764;" vertex="1" parent="1">
          <mxGeometry x="355" y="430" width="10" height="40" as="geometry" />
        </mxCell>
        <mxCell id="nUlfz_mp-8qioIIaXf8o-12" value="System Status:" style="text;html=1;strokeColor=#343764;fillColor=none;align=center;verticalAlign=middle;whiteSpace=wrap;rounded=0;" vertex="1" parent="1">
          <mxGeometry x="290" y="340" width="100" height="20" as="geometry" />
        </mxCell>
        <mxCell id="nUlfz_mp-8qioIIaXf8o-13" value="" style="html=1;verticalLabelPosition=bottom;align=center;labelBackgroundColor=#ffffff;verticalAlign=top;strokeWidth=2;strokeColor=#343764;shadow=0;dashed=0;shape=mxgraph.ios7.icons.volume_2;pointerEvents=1" vertex="1" parent="1">
          <mxGeometry x="290" y="435.9" width="30.299999999999997" height="28.2" as="geometry" />
        </mxCell>
        <mxCell id="nUlfz_mp-8qioIIaXf8o-14" value="Protocontrol" style="text;html=1;strokeColor=none;fillColor=none;align=center;verticalAlign=middle;whiteSpace=wrap;rounded=0;" vertex="1" parent="1">
          <mxGeometry x="325" y="510" width="60" height="30" as="geometry" />
        </mxCell>
        <mxCell id="nUlfz_mp-8qioIIaXf8o-15" value="i2c" style="text;html=1;strokeColor=none;fillColor=none;align=center;verticalAlign=middle;whiteSpace=wrap;rounded=0;" vertex="1" parent="1">
          <mxGeometry x="240" y="240" width="60" height="30" as="geometry" />
        </mxCell>
        <mxCell id="nUlfz_mp-8qioIIaXf8o-16" value="i2c" style="text;html=1;strokeColor=none;fillColor=none;align=center;verticalAlign=middle;whiteSpace=wrap;rounded=0;" vertex="1" parent="1">
          <mxGeometry x="440" y="240" width="60" height="30" as="geometry" />
        </mxCell>
        <mxCell id="nUlfz_mp-8qioIIaXf8o-17" value="" style="shape=flexArrow;endArrow=classic;html=1;rounded=0;strokeColor=#BBE617;fillColor=#BBE617;" edge="1" parent="1" target="nUlfz_mp-8qioIIaXf8o-18">
          <mxGeometry width="50" height="50" relative="1" as="geometry">
            <mxPoint x="359.77" y="210" as="sourcePoint" />
            <mxPoint x="359.77" y="150" as="targetPoint" />
          </mxGeometry>
        </mxCell>
        <mxCell id="nUlfz_mp-8qioIIaXf8o-18" value="Lights" style="rounded=0;whiteSpace=wrap;html=1;" vertex="1" parent="1">
          <mxGeometry x="300.0000000000002" y="90" width="120" height="60" as="geometry" />
        </mxCell>
        <mxCell id="nUlfz_mp-8qioIIaXf8o-20" value="" style="ellipse;whiteSpace=wrap;html=1;aspect=fixed;" vertex="1" parent="1">
          <mxGeometry x="490" y="440" width="80" height="80" as="geometry" />
        </mxCell>
        <mxCell id="nUlfz_mp-8qioIIaXf8o-24" value="" style="curved=1;endArrow=classic;html=1;rounded=0;exitX=0.5;exitY=0;exitDx=0;exitDy=0;entryX=0.5;entryY=0;entryDx=0;entryDy=0;" edge="1" parent="1" source="nUlfz_mp-8qioIIaXf8o-21" target="nUlfz_mp-8qioIIaXf8o-10">
          <mxGeometry width="50" height="50" relative="1" as="geometry">
            <mxPoint x="500" y="350" as="sourcePoint" />
            <mxPoint x="450" y="280" as="targetPoint" />
            <Array as="points">
              <mxPoint x="480" y="400" />
              <mxPoint x="400" y="410" />
            </Array>
          </mxGeometry>
        </mxCell>
        <mxCell id="nUlfz_mp-8qioIIaXf8o-25" value="" style="curved=1;endArrow=classic;html=1;rounded=0;exitX=1.299;exitY=0.9;exitDx=0;exitDy=0;exitPerimeter=0;" edge="1" parent="1" source="nUlfz_mp-8qioIIaXf8o-11" target="nUlfz_mp-8qioIIaXf8o-21">
          <mxGeometry width="50" height="50" relative="1" as="geometry">
            <mxPoint x="460" y="470" as="sourcePoint" />
            <mxPoint x="510" y="420" as="targetPoint" />
            <Array as="points">
              <mxPoint x="390" y="510" />
              <mxPoint x="440" y="520" />
            </Array>
          </mxGeometry>
        </mxCell>
      </root>
    </mxGraphModel>
  </diagram>
</mxfile>
